<svg width="500" height="500" viewBox="0 0 500 500" fill="none" xmlns="http://www.w3.org/2000/svg">
<path d="M180 164V132.762C180 119.299 185.326 106.388 194.807 96.8678C204.288 87.3481 217.147 82 230.556 82H269.444C282.853 82 295.712 87.3481 305.193 96.8678C314.674 106.388 320 119.299 320 132.762V164" stroke="white" stroke-width="33.6" stroke-linecap="round"/>
<path d="M335.8 164H164.2C125.43 164 94 195.503 94 234.364V351.636C94 390.497 125.43 422 164.2 422H335.8C374.57 422 406 390.497 406 351.636V234.364C406 195.503 374.57 164 335.8 164Z" fill="white"/>
<path opacity="0.85" d="M406 248H94V280H406V248Z" fill="#FF6B2C" fill-opacity="0.55"/>
<path d="M285.778 239H214.222C203.054 239 194 248.094 194 259.313V268.688C194 279.906 203.054 289 214.222 289H285.778C296.946 289 306 279.906 306 268.688V259.313C306 248.094 296.946 239 285.778 239Z" fill="#FF6B2C"/>
</svg>
